<?xml version="1.0" encoding="UTF-8" standalone="no"?>
<!DOCTYPE svg PUBLIC "-//W3C//DTD SVG 1.1//EN" "http://www.w3.org/Graphics/SVG/1.1/DTD/svg11.dtd">
<!-- Created with Vectornator (http://vectornator.io/) -->
<svg height="100%" stroke-miterlimit="10" style="fill-rule:nonzero;clip-rule:evenodd;stroke-linecap:round;stroke-linejoin:round;" version="1.1" viewBox="0 0 2000 820" width="100%" xml:space="preserve" xmlns="http://www.w3.org/2000/svg" xmlns:xlink="http://www.w3.org/1999/xlink">
<defs/>
<g id="Layer-2">
<g opacity="1">
<path d="M404.679 76.2695C388.109 94.1364 341.984 153.598 320.515 276.408C297.816 406.249 270.516 586.156 270.516 586.156C270.516 586.156 204.745 246.94 202.354 217.451C199.017 176.296 160.701 111.106 108.738 91.6229C57.6369 72.4629 40.9673 87.2304 22.8724 93.1885C-2.50451 103.56-1.18143 130.752 2.84421 137.758C12.793 155.071 36.6404 149.719 45.1668 146.114C53.6933 142.509 65.3251 122.709 74.4535 127.378C108.505 144.797 172.47 609.288 174.759 620.858C180.84 651.595 203.611 697.504 214.44 713.458C247.273 761.828 263.191 763.837 290.826 765.171C326.048 759.464 347.808 731.659 355.752 707.395C363.818 682.759 397.026 314.518 461 166.638C476.318 131.231 494.103 105.552 519.803 88.4578C552.403 66.7734 558.87 84.8317 587.292 77.7665C608.428 72.5125 556.86 22.4907 498.42 24.3097C455.005 25.6611 423.034 56.4778 404.679 76.2695Z" fill="#000000" fill-rule="evenodd" opacity="1" stroke="none"/>
<path d="M506.033 710.666C506.033 710.666 504.513 739.142 442.829 739.142C381.146 739.142 382.85 709.106 382.85 709.106C382.85 709.106 384.637 681.013 443.546 681.013C502.456 681.013 506.033 710.666 506.033 710.666Z" fill="#000000" fill-rule="evenodd" opacity="1" stroke="none"/>
<path d="M605.262 96.9823C728.002 110.293 730.667 201.429 725.615 241.279C723.961 254.33 682.088 255.07 682.088 255.07C682.088 255.07 649.155 245.819 643.385 228.436C637.614 211.053 639.417 168.901 610.911 167.143C582.406 165.385 549.345 200.799 540.173 237.811C495.061 419.856 699.44 526.583 701.226 682.474C702.138 762.11 622.579 767.482 622.579 767.482C622.579 767.482 557.921 764.193 529.433 724.907C500.946 685.621 494.321 654.26 450.957 610.896C405.396 565.335 397.848 623.858 397.848 581.808C397.848 560.822 409.786 524.885 474.817 541.603C512.65 551.329 513.334 551.753 533.01 573.472C565.591 609.437 586.065 693.968 608.071 682.757C639.349 666.823 435.526 453.108 438.822 293.115C441.556 160.39 564.69 92.5826 605.262 96.9823Z" fill="#000000" fill-rule="evenodd" opacity="1" stroke="none"/>
<path d="M398.819 596.078C403.732 611.83 482.771 624.82 459.314 608.578C425.46 585.135 394.284 581.535 398.819 596.078Z" fill="#000000" fill-rule="evenodd" opacity="1" stroke="none"/>
<g opacity="1">
<path d="M706.219 747.25C705.893 747.341 705.603 747.586 705.438 747.906C705.383 748.011 705.419 747.914 705.25 748.531C705.214 748.893 705.482 749.214 705.844 749.25C705.938 749.259 705.946 749.122 706.031 749.094C706.114 749.32 706.187 749.522 706.562 749.562C707.621 749.676 707.834 748.038 707.188 747.469C706.895 747.211 706.545 747.159 706.219 747.25ZM706.594 748.281C707 748.295 706.955 749.026 706.688 749.188C706.561 749.264 706.446 749.055 706.281 748.875C706.365 748.777 706.549 748.794 706.562 748.656C706.562 748.506 706.461 748.555 706.562 748.5C706.624 748.467 706.527 748.279 706.594 748.281Z" fill="#000000" stroke="none"/>
</g>
<path d="M804.254 430.352C770.571 432.42 715.637 475.695 705.081 562.562C698.226 653.372 723.64 729.114 812.678 733.539C872.738 736.524 898.601 674.509 899.701 662.142C900.802 649.776 869.315 643.266 869.764 656.725C870.213 670.184 872.895 708.676 841.957 708.676C811.019 708.676 789.632 610.35 812.334 598.543C836.264 586.096 862.083 558.527 871.267 512.897C873.462 501.996 875.404 438.415 810.674 430.509C808.637 430.281 806.5 430.214 804.254 430.352ZM815.058 490.977C823.141 491.698 817.071 514.904 814.651 522.605C812.069 530.82 799.62 551.007 799.62 551.007C799.62 551.007 797.611 533.735 800.559 516.968C804.315 495.61 804.557 493.277 813.242 491.165C813.912 491.002 814.519 490.929 815.058 490.977Z" fill="#000000" fill-rule="evenodd" opacity="1" stroke="#000000" stroke-linecap="round" stroke-linejoin="round" stroke-width="2.13989"/>
<path d="M899.128 140.58C958.423 141.564 995.074 193.051 992.626 274.975C987.778 437.207 989.476 662.265 1069.6 705.609C1107.7 726.222 1093.96 633.776 1116.44 628.155C1138.93 622.533 1173.91 746.211 1065.22 761.827C956.538 777.443 898.447 630.029 895.949 553.198C893.45 476.368 915.312 170.297 886.579 199.03C857.846 227.763 811.705 322.603 817.869 408.908C818.494 417.653 729.796 452.632 729.796 425.148C729.796 397.664 681.443 330.437 651.092 332.078C627.98 333.327 625.374 292.341 659.212 287.104C711.681 278.984 754.781 344.57 752.907 316.462C747.289 232.196 807.875 139.065 899.128 140.58Z" fill="#000000" fill-rule="evenodd" opacity="1" stroke="#000000" stroke-linecap="round" stroke-linejoin="round" stroke-width="2.13989"/>
<path d="M1104.84 275.471C1061.27 278.699 1021.73 341.658 1014.31 422.743C1006.4 509.234 1045.24 588.784 1092.32 585.109C1146.24 580.899 1180.73 530.997 1188.64 444.506C1196.55 358.016 1160.53 280.875 1113.61 275.627C1110.68 275.299 1107.75 275.255 1104.84 275.471ZM1106.6 339.885C1112.3 340.454 1116.78 380.989 1112.14 427.471C1107.5 473.954 1106.75 510.522 1101.05 509.954C1095.35 509.385 1081.26 474.518 1085.9 428.035C1090.54 381.553 1100.9 339.316 1106.6 339.885Z" fill="#000000" fill-rule="evenodd" opacity="1" stroke="none"/>
<path d="M1273.65 715.017C1312.4 714.654 1280.89 640.41 1317.83 690.389C1354.77 740.368 1294.65 753.769 1270.03 752.682C1245.4 751.596 1222.58 753.044 1186.73 712.119C1150.87 671.194 1134.21 581.377 1132.4 574.495C1130.59 567.614 1183.47 422.023 1185.64 408.26C1187.82 394.498 1200.12 517.24 1226.93 620.129C1251.56 714.654 1273.65 715.017 1273.65 715.017Z" fill="#000000" fill-rule="evenodd" opacity="1" stroke="none"/>
<path d="M1319.94 89.1807C1193.9 89.1807 1159.38 166.054 1119.47 172.947C1079.55 179.84 1071.19 155.249 1051.86 147.801C1032.52 140.354 987.467 135.93 988.227 161.549C988.988 187.167 1012.95 179.622 1019.13 183.531C1025.32 187.441 1069.53 243.59 1121.97 241.401C1174.42 239.211 1217.1 189.387 1217.1 189.387C1217.11 189.387 1244.04 621.309 1241.09 628.824C1226.69 665.518 1301.17 656.183 1313.68 638.406C1323.92 623.849 1291.44 603.052 1286.31 584.232C1281.18 565.411 1288.57 355.529 1288 356.669C1450.54 373.779 1457 248.374 1458.26 234.273C1458.96 226.424 1445.98 89.1807 1319.94 89.1807ZM1316 142.509C1345.77 141.042 1359.82 195.345 1353.95 229.313C1348.08 263.281 1326.51 319.673 1285.62 317.996C1281.64 317.996 1284.15 164.523 1284.15 164.523C1284.15 164.523 1286.22 143.977 1316 142.509Z" fill="#000000" fill-rule="evenodd" opacity="1" stroke="none"/>
<path d="M1411.38 374.769L1418.49 443.254C1421.77 437.603 1425.01 434.291 1427.88 434.736C1436.91 436.135 1438.96 471.103 1432.49 512.866C1431.24 520.899 1429.73 528.446 1428.1 535.632L1438.87 639.408C1438.87 639.408 1488.71 774.683 1618.81 794.102C1806.52 775.331 1790.4 623.254 1715.26 632.3C1686.18 750.12 1628.32 738.133 1616.65 737.235C1506.48 728.76 1490.87 479.861 1495.37 449.767C1499.86 419.674 1515.98 432.685 1514.69 409.81C1512.89 377.92 1453.15 395.875 1453.15 395.875C1453.15 395.875 1436.08 374.769 1411.38 374.769Z" fill="#000000" fill-rule="evenodd" opacity="1" stroke="none"/>
<path d="M1413.04 374.109C1410.39 373.992 1407.69 374.334 1404.99 375.205C1349.07 393.23 1314.87 438.096 1314.87 515.65C1314.87 593.204 1328.71 656.837 1404.99 656.064C1454.76 655.56 1463.27 572.774 1476.95 518.03C1485.8 482.659 1452.79 375.851 1413.04 374.109ZM1427.88 434.733C1436.91 436.132 1438.96 471.1 1432.49 512.863C1426.01 554.626 1413.45 587.35 1404.43 585.951C1395.4 584.553 1393.35 549.553 1399.83 507.79C1406.3 466.028 1418.86 433.335 1427.88 434.733Z" fill="#000000" fill-rule="evenodd" opacity="1" stroke="none"/>
<path d="M1556.26 32.2361C1595.57 30.7183 1593.51 54.5154 1593.86 63.2183C1594.21 71.9211 1605.35 338.229 1599.78 341.71C1594.21 345.191 1667.66 348.324 1667.66 348.324C1667.66 348.324 1721.62 348.672 1710.83 374.433C1700.04 400.193 1685.42 389.054 1685.42 389.054L1604.3 388.009C1604.3 388.009 1605.2 628.216 1639.08 624.389C1672.97 620.563 1661.77 583.396 1674.06 583.123C1686.36 582.849 1710.41 612.315 1683.9 659.917C1663.95 679.867 1626.79 679.097 1615.03 676.364C1603.28 673.631 1560.1 670.352 1546.16 630.178C1532.23 590.005 1536.87 400.341 1536.05 385.31C1535.23 370.279 1449.55 392.235 1438.04 378.735C1426.54 365.235 1422.28 344.477 1432.77 339.221C1443.27 333.965 1514.5 355.678 1520.39 342.083C1536.28 305.389 1522.12 128.863 1518.18 87.5479C1515.19 56.1811 1522.99 33.521 1556.26 32.2361Z" fill="#000000" fill-rule="evenodd" opacity="1" stroke="none"/>
<path d="M1189.11 49.4113" fill="none" fill-rule="evenodd" opacity="1" stroke="#000000" stroke-linecap="round" stroke-linejoin="round" stroke-width="2.13989"/>
<path d="M1793.05 96.49C1843.98 99.5208 1847.64 186.31 1847.64 186.31C1847.64 186.31 1832.61 741.292 1919.71 748.757C1946.56 751.059 1917.41 672.043 1957.3 671.276C1997.19 670.509 2011 736.483 1984.92 771.004C1958.83 805.526 1945.79 811.663 1905.9 817.033C1866.01 822.403 1819.78 776.202 1787.76 685.851C1731.76 527.82 1789.04 180.082 1761.68 187.975C1721.79 199.482 1698.71 300.525 1703.71 310.787C1708.72 321.049 1719.61 326.775 1713.69 334.473C1707.77 342.171 1628.17 351.327 1621.96 330.722C1619.1 321.239 1623.82 327.385 1626.36 315.103C1628.91 302.82 1616.92 42.9163 1595.06 35.8563C1570.13 27.8068 1574.47 12.8852 1583.78 9.3388C1608.92-0.230764 1670.95 9.77216 1680.34 30.4277C1688.41 48.1889 1697.56 152.265 1696.96 182.404C1696.55 203.222 1728.52 92.6499 1793.05 96.49Z" fill="#000000" fill-rule="evenodd" opacity="1" stroke="none"/>
<path d="M1925.63 166.596C1968.42 167.131 1972.84 192.334 1972.1 198.364C1971.37 204.394 1960.04 222.631 1925.33 222.631C1890.62 222.631 1881.21 200.864 1880.48 193.069C1879.74 185.274 1890.33 166.155 1925.63 166.596Z" fill="#000000" fill-rule="evenodd" opacity="1" stroke="none"/>
<path d="M1968.22 316.53C1986.8 338.196 1955.16 416.949 1955.16 469.565C1955.16 522.182 1976.48 602.655 1985.08 623.289C1993.67 643.923 1906.32 670.56 1888.78 632.574C1880.53 614.691 1920.54 444.639 1897.04 380.839C1887.41 354.703 1859.9 325.128 1873.65 313.091C1887.41 301.055 1949.65 294.864 1968.22 316.53Z" fill="#000000" fill-rule="evenodd" opacity="1" stroke="none"/>
</g>
</g>
</svg>
